<?xml version="1.0" encoding="UTF-8"?>
<svg id="lamigo-logo-light" xmlns="http://www.w3.org/2000/svg" viewBox="0 0 1236.18 361.03">
  <defs>
    <style>
      .logo-orange {
        fill: #fa7d43;
      }
      .logo-primary {
        fill: #1f2937;
      }
    </style>
  </defs>
  <g id="text-go" class="logo-orange">
    <path d="M973.28,187.39c.04-8.78,4.18-16.72,12.76-16.95,19.87-.52,38.75-.47,58.91.09,4.12.11,10.46,6.45,10.61,10.55.9,24.9.88,47.76.04,72.67-.11,3.18-4.88,7.94-7.18,9.87-18.07,15.17-39.26,19.34-62.17,19.7-38.5.6-75.12-17.9-93.59-52.44-15.31-28.62-15.51-62.08-3.83-92.09,9.61-24.69,32.21-47.74,57.31-56.6,28.95-10.22,61.03-8.37,88.51,5.08,9.41,4.61,11.89,14.5,8.33,23.43-4.03,10.11-13.32,13.43-23.45,9.04-18.32-7.94-39.48-11.36-58.57-3.35-30.05,12.59-45.31,45.48-39.73,77.04,3.11,17.59,11.94,32.59,26.87,42.19,20.91,13.45,46.09,15.46,69.29,5.6l.22-35.61-34.29-1.41c-7.61-.31-10.08-10-10.05-16.82Z"/>
    <path d="M1236.18,204.59c0,43.74-35.48,79.2-79.25,79.2s-79.25-35.46-79.25-79.2,35.48-79.2,79.25-79.2,79.25,35.46,79.25,79.2ZM1192.49,226.7c6.64-14.31,6.28-31.47-.09-44.95-6.41-13.57-18.88-21.7-31.78-22.56-14.67-.98-27.46,4.58-35.79,16.87-8.69,12.83-10.57,29-6.46,44,4.52,16.5,18.47,28.28,34.32,29.45s32.31-6.68,39.8-22.82Z"/>
  </g>
  <g id="icon-and-text-lami" class="logo-primary">
    <path d="M330.38,297.57c-11.83-19.13-18.87-39.66-18.93-61.68l-.37-133.33c-.03-10.57-2.96-20.95-10.27-28.63-24.87-26.12-103.07,35.81-122.07,55.52.17,12.68-1.91,25.9-11.16,34.49-9.74,9.04-21.69,13.5-35.76,12.01-14.85-1.58-26.64-11.3-32.25-23.64-6.42-14.13-4.53-29.44,4.45-41.53,12.88-17.35,35.03-22.17,53.97-11.69,34.61-29.45,75.25-64.14,121.96-66.65,20.04-1.08,39.85,4.87,52.72,20.64,7.33,8.99,13.79,21.3,13.85,33.54l.7,139.7c.14,27.36,9.8,51.67,29.83,70.37,32.1,29.97,81.37,37.18,121.73,17.06,6.98-3.48,16.09-4.72,22.83.55s8.9,22.15.2,27.6c-25.18,15.77-54.46,20.68-84.29,18.74-43.81-2.85-83.7-25.18-107.13-63.06Z"/>
    <path d="M214.77,168.06c-2.36,50.32-39.59,94.59-77.57,125.01-9.97,7.99-34.71,25.87-46.84,17.19-8.28-5.92-15.05-12.94-21.24-21.11C40.37,251.22,4.14,193.85.38,145.49-2.96,102.48,15.76,60.39,47.18,33.38,80.84,4.46,125.38-6.47,168.27,3.75c17.19,4.1,33.05,9.9,46.64,21.08-20.26-8.68-39.39-14.94-60.94-13.78-59.7,3.22-104.73,51.91-106.56,110.91-.91,29.17,9.61,54.57,32.52,73.32,21.34,17.47,48.18,25.72,76.94,19.17,23.51-5.36,46.36-21.56,57.91-46.39Z"/>
    <path d="M690.66,265.23c-.1,10.54-8.37,15.74-17.12,16.14-10.01.46-18.67-6.14-18.75-16.92l-.55-77.87c-.06-9.12-3.75-19.24-11.59-24.18s-19.76-5.06-28.03-.59c-9.96,5.38-16.11,16.93-16.23,28.4l-.77,74.38c-.11,10.77-8.63,17.15-18.93,16.71-8.13-.35-16.74-5.42-16.74-14.82v-119.47c0-11.28,6.81-19.34,17.42-19.52s17.11,7.44,18.69,20.6c10.81-15.64,25.07-22.15,42.39-22.74,19.96-.68,35.79,8.09,45.2,27.69,11.18-19.63,28.19-27.64,48.06-27.51,18.76.13,35,8.38,43.43,25.91,4.3,9.96,6.4,21.08,6.43,32.5l.17,79.8c.02,10.33-6.96,17.13-17.18,17.62-8.94.43-18.62-5.1-18.76-15.52l-1.04-80.54c-.11-8.75-3.38-18.35-10.88-22.95-8.59-5.27-21.31-4.92-29.79.74-9.23,6.15-14.65,17.73-14.75,28.93l-.68,73.2Z"/>
    <path d="M511.11,281.39c-11.6.68-19.08-5.7-20.48-17.53-7.5,6.87-13.6,14.04-23.3,16.6-43.18,11.37-80.37-13.3-89.29-54.37-8.14-37.46,5.89-78.67,41.7-95.39,8.46-3.95,18.21-4.99,27.44-5.36,16.88-.68,31.76,5.47,44.13,16.52,2.85-12.49,5.36-15.94,17.6-16.61,9.23-.5,17.47,4.77,17.47,14.95v125.58c.01,9.13-6.27,15.1-15.26,15.62ZM485.13,230.32c8.13-15.87,8.27-34.73,1.33-50-6.21-13.69-17.91-20.87-32.34-21.6s-26.51,4.78-34.19,17.44c-8.62,14.2-9.71,32.65-3.93,48.52,5.34,14.66,18.27,24.07,32.14,24.93,15.26.94,29.59-4.84,36.98-19.28Z"/>
    <path d="M140.88,354.29c-18.22,1.89-35.9-16.84-34.56-26.79.34-2.53,3.22-6.63,6.3-8.34,70.67-39.41,135.44-122.66,104.94-208.11,14.33-11.3,28.95-20.9,46.15-28.1,14.15,38.01,12.68,79.11-3.63,115.81-15.81,35.56-37.08,67-60.58,97.82-12.86,16.88-25.3,32.51-40.31,47.3-4.65,4.59-11.25,9.67-18.31,10.4Z"/>
    <path d="M835.85,281.21c-11.43-.18-18.37-7.21-18.36-18l.06-117.61c0-10.1,7.44-16.97,15.73-17.88,9.09-1,19.87,4.06,19.9,14.93l.29,122.15c.02,10.03-7.39,16.57-17.61,16.41Z"/>
    <path d="M181.58,66.43c-31.53-19.22-68.81-17.24-96.89,5.81-13.94,10.02-21.89,23.65-27.6,40.8,3.14-44.1,35.11-80.27,78.48-91.11,29.56-6.49,60.12-.31,85.35,17.5-14.39,8.6-26.08,16.64-39.33,27Z"/>
    <path d="M850.36,105.34c-8.16,3.54-20.88,2.81-29.37.59-7.01-1.84-9.68-29.15,3.17-32.86,6.9-1.99,16.3-1.85,23.31.24,10.56,3.14,10.06,28.92,2.89,32.03Z"/>
  </g>
</svg>